<mxfile host="app.diagrams.net" modified="2023-05-24T16:15:40.220Z" agent="Mozilla/5.0 (Windows NT 10.0; Win64; x64; rv:109.0) Gecko/20100101 Firefox/113.0" etag="xS2ypp5y-i_yUp1MDBIC" version="21.3.3" type="google">
  <diagram id="C5RBs43oDa-KdzZeNtuy" name="Page-1">
    <mxGraphModel grid="1" page="1" gridSize="10" guides="1" tooltips="1" connect="1" arrows="1" fold="1" pageScale="1" pageWidth="827" pageHeight="1169" math="0" shadow="0">
      <root>
        <mxCell id="WIyWlLk6GJQsqaUBKTNV-0" />
        <mxCell id="WIyWlLk6GJQsqaUBKTNV-1" parent="WIyWlLk6GJQsqaUBKTNV-0" />
        <mxCell id="C6LJLUUqIyaHrq4dWDmy-4" style="edgeStyle=orthogonalEdgeStyle;rounded=0;orthogonalLoop=1;jettySize=auto;html=1;exitX=1;exitY=0.5;exitDx=0;exitDy=0;" edge="1" parent="WIyWlLk6GJQsqaUBKTNV-1" source="WIyWlLk6GJQsqaUBKTNV-3" target="C6LJLUUqIyaHrq4dWDmy-2">
          <mxGeometry relative="1" as="geometry">
            <mxPoint x="330" y="100" as="targetPoint" />
          </mxGeometry>
        </mxCell>
        <mxCell id="WIyWlLk6GJQsqaUBKTNV-3" value="Αρχικοποίηση των LEDs, PIN5 του PortF και ADC" style="rounded=1;whiteSpace=wrap;html=1;fontSize=12;glass=0;strokeWidth=1;shadow=0;" vertex="1" parent="WIyWlLk6GJQsqaUBKTNV-1">
          <mxGeometry x="160" y="80" width="120" height="40" as="geometry" />
        </mxCell>
        <mxCell id="C6LJLUUqIyaHrq4dWDmy-26" value="" style="edgeStyle=orthogonalEdgeStyle;rounded=0;orthogonalLoop=1;jettySize=auto;html=1;" edge="1" parent="WIyWlLk6GJQsqaUBKTNV-1">
          <mxGeometry relative="1" as="geometry">
            <mxPoint x="550" y="100" as="sourcePoint" />
            <mxPoint x="600" y="100" as="targetPoint" />
          </mxGeometry>
        </mxCell>
        <mxCell id="13l5qrkYSoA4fVbRsCHJ-74" style="rounded=0;orthogonalLoop=1;jettySize=auto;html=1;exitX=0.25;exitY=0;exitDx=0;exitDy=0;entryX=0.411;entryY=1.018;entryDx=0;entryDy=0;entryPerimeter=0;shadow=1;dashed=1;" edge="1" parent="WIyWlLk6GJQsqaUBKTNV-1" source="flucwt-dqUH6lkM2mZYo-7" target="C6LJLUUqIyaHrq4dWDmy-20">
          <mxGeometry relative="1" as="geometry">
            <mxPoint x="660" y="80" as="sourcePoint" />
          </mxGeometry>
        </mxCell>
        <mxCell id="C6LJLUUqIyaHrq4dWDmy-1" style="edgeStyle=orthogonalEdgeStyle;rounded=0;orthogonalLoop=1;jettySize=auto;html=1;entryX=0;entryY=0.5;entryDx=0;entryDy=0;" edge="1" parent="WIyWlLk6GJQsqaUBKTNV-1" source="C6LJLUUqIyaHrq4dWDmy-0" target="WIyWlLk6GJQsqaUBKTNV-3">
          <mxGeometry relative="1" as="geometry" />
        </mxCell>
        <mxCell id="C6LJLUUqIyaHrq4dWDmy-0" value="Start" style="ellipse;whiteSpace=wrap;html=1;" vertex="1" parent="WIyWlLk6GJQsqaUBKTNV-1">
          <mxGeometry x="40" y="65" width="70" height="70" as="geometry" />
        </mxCell>
        <mxCell id="C6LJLUUqIyaHrq4dWDmy-11" value="" style="edgeStyle=orthogonalEdgeStyle;rounded=0;orthogonalLoop=1;jettySize=auto;html=1;" edge="1" parent="WIyWlLk6GJQsqaUBKTNV-1" source="C6LJLUUqIyaHrq4dWDmy-2">
          <mxGeometry relative="1" as="geometry">
            <mxPoint x="430" y="100" as="targetPoint" />
          </mxGeometry>
        </mxCell>
        <mxCell id="C6LJLUUqIyaHrq4dWDmy-2" value="while(1)" style="rhombus;whiteSpace=wrap;html=1;shadow=0;fontFamily=Helvetica;fontSize=12;align=center;strokeWidth=1;spacing=6;spacingTop=-4;" vertex="1" parent="WIyWlLk6GJQsqaUBKTNV-1">
          <mxGeometry x="310" y="62.5" width="80" height="75" as="geometry" />
        </mxCell>
        <mxCell id="13l5qrkYSoA4fVbRsCHJ-63" value="" style="edgeStyle=orthogonalEdgeStyle;rounded=0;orthogonalLoop=1;jettySize=auto;html=1;strokeColor=#FF0000;" edge="1" parent="WIyWlLk6GJQsqaUBKTNV-1" source="C6LJLUUqIyaHrq4dWDmy-12">
          <mxGeometry relative="1" as="geometry">
            <mxPoint x="1230" y="100" as="targetPoint" />
          </mxGeometry>
        </mxCell>
        <mxCell id="C6LJLUUqIyaHrq4dWDmy-12" value="έχει περάσει χρόνος 3s;" style="rhombus;whiteSpace=wrap;html=1;shadow=0;fontFamily=Helvetica;fontSize=12;align=center;strokeWidth=1;spacing=6;spacingTop=-4;" vertex="1" parent="WIyWlLk6GJQsqaUBKTNV-1">
          <mxGeometry x="940" y="52.5" width="90" height="95" as="geometry" />
        </mxCell>
        <mxCell id="13l5qrkYSoA4fVbRsCHJ-89" value="" style="edgeStyle=orthogonalEdgeStyle;rounded=0;orthogonalLoop=1;jettySize=auto;html=1;entryX=0;entryY=0.5;entryDx=0;entryDy=0;strokeColor=#FF0000;" edge="1" parent="WIyWlLk6GJQsqaUBKTNV-1" source="C6LJLUUqIyaHrq4dWDmy-20" target="13l5qrkYSoA4fVbRsCHJ-90">
          <mxGeometry relative="1" as="geometry">
            <mxPoint x="845" y="-50" as="targetPoint" />
          </mxGeometry>
        </mxCell>
        <mxCell id="C6LJLUUqIyaHrq4dWDmy-20" value="&lt;div&gt;Ενεργοποίηση PIN5&lt;/div&gt;&lt;div&gt;PΟRTF &lt;br&gt;&lt;/div&gt;&lt;div&gt;(πάτημα διακόπτη)&lt;br&gt;&lt;/div&gt;" style="shape=parallelogram;perimeter=parallelogramPerimeter;whiteSpace=wrap;html=1;fixedSize=1;" vertex="1" parent="WIyWlLk6GJQsqaUBKTNV-1">
          <mxGeometry x="400" y="-80" width="150" height="60" as="geometry" />
        </mxCell>
        <mxCell id="C6LJLUUqIyaHrq4dWDmy-29" value="" style="edgeStyle=orthogonalEdgeStyle;rounded=0;orthogonalLoop=1;jettySize=auto;html=1;" edge="1" parent="WIyWlLk6GJQsqaUBKTNV-1" target="C6LJLUUqIyaHrq4dWDmy-28">
          <mxGeometry relative="1" as="geometry">
            <mxPoint x="720" y="100" as="sourcePoint" />
          </mxGeometry>
        </mxCell>
        <mxCell id="C6LJLUUqIyaHrq4dWDmy-30" value="" style="edgeStyle=orthogonalEdgeStyle;rounded=0;orthogonalLoop=1;jettySize=auto;html=1;" edge="1" parent="WIyWlLk6GJQsqaUBKTNV-1" source="C6LJLUUqIyaHrq4dWDmy-28" target="C6LJLUUqIyaHrq4dWDmy-12">
          <mxGeometry relative="1" as="geometry" />
        </mxCell>
        <mxCell id="C6LJLUUqIyaHrq4dWDmy-36" value="" style="edgeStyle=orthogonalEdgeStyle;rounded=0;orthogonalLoop=1;jettySize=auto;html=1;strokeColor=#FF0000;" edge="1" parent="WIyWlLk6GJQsqaUBKTNV-1" source="C6LJLUUqIyaHrq4dWDmy-28" target="C6LJLUUqIyaHrq4dWDmy-35">
          <mxGeometry relative="1" as="geometry" />
        </mxCell>
        <mxCell id="C6LJLUUqIyaHrq4dWDmy-28" value="RES &amp;gt; 10;" style="rhombus;whiteSpace=wrap;html=1;shadow=0;fontFamily=Helvetica;fontSize=12;align=center;strokeWidth=1;spacing=6;spacingTop=-4;" vertex="1" parent="WIyWlLk6GJQsqaUBKTNV-1">
          <mxGeometry x="790" y="52.5" width="90" height="95" as="geometry" />
        </mxCell>
        <mxCell id="C6LJLUUqIyaHrq4dWDmy-31" value="όχι" style="text;html=1;align=center;verticalAlign=middle;resizable=0;points=[];autosize=1;strokeColor=none;fillColor=none;" vertex="1" parent="WIyWlLk6GJQsqaUBKTNV-1">
          <mxGeometry x="880" y="70" width="40" height="30" as="geometry" />
        </mxCell>
        <mxCell id="C6LJLUUqIyaHrq4dWDmy-39" value="" style="edgeStyle=orthogonalEdgeStyle;rounded=0;orthogonalLoop=1;jettySize=auto;html=1;" edge="1" parent="WIyWlLk6GJQsqaUBKTNV-1" source="C6LJLUUqIyaHrq4dWDmy-35" target="C6LJLUUqIyaHrq4dWDmy-38">
          <mxGeometry relative="1" as="geometry" />
        </mxCell>
        <mxCell id="C6LJLUUqIyaHrq4dWDmy-35" value="Παύση Κίνησης" style="rounded=1;whiteSpace=wrap;html=1;fontSize=12;glass=0;strokeWidth=1;shadow=0;" vertex="1" parent="WIyWlLk6GJQsqaUBKTNV-1">
          <mxGeometry x="775" y="240" width="120" height="40" as="geometry" />
        </mxCell>
        <mxCell id="C6LJLUUqIyaHrq4dWDmy-37" value="ISR&amp;nbsp; ADC_WCOMP interrupt" style="text;html=1;align=center;verticalAlign=middle;resizable=0;points=[];autosize=1;strokeColor=none;fillColor=none;" vertex="1" parent="WIyWlLk6GJQsqaUBKTNV-1">
          <mxGeometry x="660" y="180" width="180" height="30" as="geometry" />
        </mxCell>
        <mxCell id="C6LJLUUqIyaHrq4dWDmy-46" value="" style="edgeStyle=orthogonalEdgeStyle;rounded=0;orthogonalLoop=1;jettySize=auto;html=1;" edge="1" parent="WIyWlLk6GJQsqaUBKTNV-1" source="C6LJLUUqIyaHrq4dWDmy-38" target="C6LJLUUqIyaHrq4dWDmy-45">
          <mxGeometry relative="1" as="geometry" />
        </mxCell>
        <mxCell id="13l5qrkYSoA4fVbRsCHJ-51" value="" style="edgeStyle=orthogonalEdgeStyle;rounded=0;orthogonalLoop=1;jettySize=auto;html=1;" edge="1" parent="WIyWlLk6GJQsqaUBKTNV-1" source="C6LJLUUqIyaHrq4dWDmy-38" target="13l5qrkYSoA4fVbRsCHJ-41">
          <mxGeometry relative="1" as="geometry" />
        </mxCell>
        <mxCell id="C6LJLUUqIyaHrq4dWDmy-38" value="Κινείται ευθεία;" style="rhombus;whiteSpace=wrap;html=1;shadow=0;fontFamily=Helvetica;fontSize=12;align=center;strokeWidth=1;spacing=6;spacingTop=-4;" vertex="1" parent="WIyWlLk6GJQsqaUBKTNV-1">
          <mxGeometry x="790" y="330" width="90" height="95" as="geometry" />
        </mxCell>
        <mxCell id="13l5qrkYSoA4fVbRsCHJ-0" value="" style="edgeStyle=orthogonalEdgeStyle;rounded=0;orthogonalLoop=1;jettySize=auto;html=1;" edge="1" parent="WIyWlLk6GJQsqaUBKTNV-1" source="C6LJLUUqIyaHrq4dWDmy-45" target="C6LJLUUqIyaHrq4dWDmy-50">
          <mxGeometry relative="1" as="geometry" />
        </mxCell>
        <mxCell id="C6LJLUUqIyaHrq4dWDmy-45" value="Αύξηση counter γωνιών κατά 1" style="rounded=1;whiteSpace=wrap;html=1;fontSize=12;glass=0;strokeWidth=1;shadow=0;" vertex="1" parent="WIyWlLk6GJQsqaUBKTNV-1">
          <mxGeometry x="775" y="460" width="120" height="40" as="geometry" />
        </mxCell>
        <mxCell id="C6LJLUUqIyaHrq4dWDmy-49" value="ναι" style="text;html=1;align=center;verticalAlign=middle;resizable=0;points=[];autosize=1;strokeColor=none;fillColor=none;" vertex="1" parent="WIyWlLk6GJQsqaUBKTNV-1">
          <mxGeometry x="600" y="340" width="40" height="30" as="geometry" />
        </mxCell>
        <mxCell id="13l5qrkYSoA4fVbRsCHJ-2" value="" style="edgeStyle=orthogonalEdgeStyle;rounded=0;orthogonalLoop=1;jettySize=auto;html=1;" edge="1" parent="WIyWlLk6GJQsqaUBKTNV-1" source="C6LJLUUqIyaHrq4dWDmy-50" target="13l5qrkYSoA4fVbRsCHJ-1">
          <mxGeometry relative="1" as="geometry" />
        </mxCell>
        <mxCell id="13l5qrkYSoA4fVbRsCHJ-5" value="" style="edgeStyle=orthogonalEdgeStyle;rounded=0;orthogonalLoop=1;jettySize=auto;html=1;" edge="1" parent="WIyWlLk6GJQsqaUBKTNV-1" source="C6LJLUUqIyaHrq4dWDmy-50" target="13l5qrkYSoA4fVbRsCHJ-4">
          <mxGeometry relative="1" as="geometry" />
        </mxCell>
        <mxCell id="C6LJLUUqIyaHrq4dWDmy-50" value="To interrupt οφείλεται στην λειτουργία freerun;" style="rhombus;whiteSpace=wrap;html=1;shadow=0;fontFamily=Helvetica;fontSize=12;align=center;strokeWidth=1;spacing=6;spacingTop=-4;" vertex="1" parent="WIyWlLk6GJQsqaUBKTNV-1">
          <mxGeometry x="785" y="560" width="100" height="110" as="geometry" />
        </mxCell>
        <mxCell id="flucwt-dqUH6lkM2mZYo-15" style="edgeStyle=orthogonalEdgeStyle;rounded=0;orthogonalLoop=1;jettySize=auto;html=1;entryX=1;entryY=0.5;entryDx=0;entryDy=0;" edge="1" parent="WIyWlLk6GJQsqaUBKTNV-1" source="13l5qrkYSoA4fVbRsCHJ-1" target="13l5qrkYSoA4fVbRsCHJ-75">
          <mxGeometry relative="1" as="geometry">
            <Array as="points">
              <mxPoint x="835" y="895" />
            </Array>
          </mxGeometry>
        </mxCell>
        <mxCell id="13l5qrkYSoA4fVbRsCHJ-1" value="Στίρίβει δεξιά " style="rounded=1;whiteSpace=wrap;html=1;fontSize=12;glass=0;strokeWidth=1;shadow=0;" vertex="1" parent="WIyWlLk6GJQsqaUBKTNV-1">
          <mxGeometry x="775" y="750" width="120" height="40" as="geometry" />
        </mxCell>
        <mxCell id="13l5qrkYSoA4fVbRsCHJ-3" value="ναι" style="text;html=1;align=center;verticalAlign=middle;resizable=0;points=[];autosize=1;strokeColor=none;fillColor=none;" vertex="1" parent="WIyWlLk6GJQsqaUBKTNV-1">
          <mxGeometry x="830" y="668" width="40" height="30" as="geometry" />
        </mxCell>
        <mxCell id="13l5qrkYSoA4fVbRsCHJ-8" value="" style="edgeStyle=orthogonalEdgeStyle;rounded=0;orthogonalLoop=1;jettySize=auto;html=1;" edge="1" parent="WIyWlLk6GJQsqaUBKTNV-1" source="13l5qrkYSoA4fVbRsCHJ-4" target="13l5qrkYSoA4fVbRsCHJ-7">
          <mxGeometry relative="1" as="geometry" />
        </mxCell>
        <mxCell id="13l5qrkYSoA4fVbRsCHJ-4" value="Το interrupt οφείλεται στη λειτουργία single conversion;" style="rhombus;whiteSpace=wrap;html=1;shadow=0;fontFamily=Helvetica;fontSize=12;align=center;strokeWidth=1;spacing=6;spacingTop=-4;" vertex="1" parent="WIyWlLk6GJQsqaUBKTNV-1">
          <mxGeometry x="590" y="555" width="110" height="120" as="geometry" />
        </mxCell>
        <mxCell id="13l5qrkYSoA4fVbRsCHJ-6" value="όχι" style="text;html=1;align=center;verticalAlign=middle;resizable=0;points=[];autosize=1;strokeColor=none;fillColor=none;" vertex="1" parent="WIyWlLk6GJQsqaUBKTNV-1">
          <mxGeometry x="720" y="588" width="40" height="30" as="geometry" />
        </mxCell>
        <mxCell id="flucwt-dqUH6lkM2mZYo-2" style="rounded=0;orthogonalLoop=1;jettySize=auto;html=1;" edge="1" parent="WIyWlLk6GJQsqaUBKTNV-1" source="13l5qrkYSoA4fVbRsCHJ-7">
          <mxGeometry relative="1" as="geometry">
            <mxPoint x="440" y="770" as="targetPoint" />
          </mxGeometry>
        </mxCell>
        <mxCell id="13l5qrkYSoA4fVbRsCHJ-7" value="Στίρίβει αριστερά " style="rounded=1;whiteSpace=wrap;html=1;fontSize=12;glass=0;strokeWidth=1;shadow=0;" vertex="1" parent="WIyWlLk6GJQsqaUBKTNV-1">
          <mxGeometry x="430" y="595" width="120" height="40" as="geometry" />
        </mxCell>
        <mxCell id="13l5qrkYSoA4fVbRsCHJ-33" value="όχι" style="text;html=1;align=center;verticalAlign=middle;resizable=0;points=[];autosize=1;strokeColor=none;fillColor=none;" vertex="1" parent="WIyWlLk6GJQsqaUBKTNV-1">
          <mxGeometry x="370" y="430" width="40" height="30" as="geometry" />
        </mxCell>
        <mxCell id="13l5qrkYSoA4fVbRsCHJ-34" value="ναι" style="text;html=1;align=center;verticalAlign=middle;resizable=0;points=[];autosize=1;strokeColor=none;fillColor=none;" vertex="1" parent="WIyWlLk6GJQsqaUBKTNV-1">
          <mxGeometry x="310" y="595" width="40" height="30" as="geometry" />
        </mxCell>
        <mxCell id="13l5qrkYSoA4fVbRsCHJ-35" value="ναι" style="text;html=1;align=center;verticalAlign=middle;resizable=0;points=[];autosize=1;strokeColor=none;fillColor=none;" vertex="1" parent="WIyWlLk6GJQsqaUBKTNV-1">
          <mxGeometry x="550" y="585" width="40" height="30" as="geometry" />
        </mxCell>
        <mxCell id="13l5qrkYSoA4fVbRsCHJ-53" value="" style="edgeStyle=orthogonalEdgeStyle;rounded=0;orthogonalLoop=1;jettySize=auto;html=1;" edge="1" parent="WIyWlLk6GJQsqaUBKTNV-1" source="13l5qrkYSoA4fVbRsCHJ-41" target="13l5qrkYSoA4fVbRsCHJ-43">
          <mxGeometry relative="1" as="geometry" />
        </mxCell>
        <mxCell id="13l5qrkYSoA4fVbRsCHJ-41" value="Κινείται ανάποδα;" style="rhombus;whiteSpace=wrap;html=1;shadow=0;fontFamily=Helvetica;fontSize=12;align=center;strokeWidth=1;spacing=6;spacingTop=-4;" vertex="1" parent="WIyWlLk6GJQsqaUBKTNV-1">
          <mxGeometry x="640" y="330" width="90" height="95" as="geometry" />
        </mxCell>
        <mxCell id="13l5qrkYSoA4fVbRsCHJ-42" value="όχι" style="text;html=1;align=center;verticalAlign=middle;resizable=0;points=[];autosize=1;strokeColor=none;fillColor=none;" vertex="1" parent="WIyWlLk6GJQsqaUBKTNV-1">
          <mxGeometry x="745" y="340" width="40" height="30" as="geometry" />
        </mxCell>
        <mxCell id="13l5qrkYSoA4fVbRsCHJ-54" value="" style="edgeStyle=orthogonalEdgeStyle;rounded=0;orthogonalLoop=1;jettySize=auto;html=1;" edge="1" parent="WIyWlLk6GJQsqaUBKTNV-1" source="13l5qrkYSoA4fVbRsCHJ-43" target="13l5qrkYSoA4fVbRsCHJ-44">
          <mxGeometry relative="1" as="geometry" />
        </mxCell>
        <mxCell id="13l5qrkYSoA4fVbRsCHJ-43" value="Μείωση counter γωνιών κατά 1" style="rounded=1;whiteSpace=wrap;html=1;fontSize=12;glass=0;strokeWidth=1;shadow=0;" vertex="1" parent="WIyWlLk6GJQsqaUBKTNV-1">
          <mxGeometry x="470" y="357.5" width="120" height="40" as="geometry" />
        </mxCell>
        <mxCell id="13l5qrkYSoA4fVbRsCHJ-55" value="" style="edgeStyle=orthogonalEdgeStyle;rounded=0;orthogonalLoop=1;jettySize=auto;html=1;" edge="1" parent="WIyWlLk6GJQsqaUBKTNV-1" source="13l5qrkYSoA4fVbRsCHJ-44" target="13l5qrkYSoA4fVbRsCHJ-46">
          <mxGeometry relative="1" as="geometry" />
        </mxCell>
        <mxCell id="13l5qrkYSoA4fVbRsCHJ-57" value="" style="edgeStyle=orthogonalEdgeStyle;rounded=0;orthogonalLoop=1;jettySize=auto;html=1;" edge="1" parent="WIyWlLk6GJQsqaUBKTNV-1" source="13l5qrkYSoA4fVbRsCHJ-44" target="13l5qrkYSoA4fVbRsCHJ-45">
          <mxGeometry relative="1" as="geometry" />
        </mxCell>
        <mxCell id="13l5qrkYSoA4fVbRsCHJ-44" value="To interrupt οφείλεται στην λειτουργία freerun;" style="rhombus;whiteSpace=wrap;html=1;shadow=0;fontFamily=Helvetica;fontSize=12;align=center;strokeWidth=1;spacing=6;spacingTop=-4;" vertex="1" parent="WIyWlLk6GJQsqaUBKTNV-1">
          <mxGeometry x="310" y="322.5" width="100" height="110" as="geometry" />
        </mxCell>
        <mxCell id="flucwt-dqUH6lkM2mZYo-9" style="edgeStyle=orthogonalEdgeStyle;rounded=0;orthogonalLoop=1;jettySize=auto;html=1;entryX=0.5;entryY=0;entryDx=0;entryDy=0;" edge="1" parent="WIyWlLk6GJQsqaUBKTNV-1" source="13l5qrkYSoA4fVbRsCHJ-45" target="13l5qrkYSoA4fVbRsCHJ-75">
          <mxGeometry relative="1" as="geometry">
            <mxPoint x="190" y="770" as="targetPoint" />
          </mxGeometry>
        </mxCell>
        <mxCell id="13l5qrkYSoA4fVbRsCHJ-45" value="Στίρίβει αριστερά " style="rounded=1;whiteSpace=wrap;html=1;fontSize=12;glass=0;strokeWidth=1;shadow=0;" vertex="1" parent="WIyWlLk6GJQsqaUBKTNV-1">
          <mxGeometry x="130" y="357.5" width="120" height="40" as="geometry" />
        </mxCell>
        <mxCell id="13l5qrkYSoA4fVbRsCHJ-56" value="" style="edgeStyle=orthogonalEdgeStyle;rounded=0;orthogonalLoop=1;jettySize=auto;html=1;" edge="1" parent="WIyWlLk6GJQsqaUBKTNV-1" source="13l5qrkYSoA4fVbRsCHJ-46" target="13l5qrkYSoA4fVbRsCHJ-47">
          <mxGeometry relative="1" as="geometry" />
        </mxCell>
        <mxCell id="13l5qrkYSoA4fVbRsCHJ-46" value="Το interrupt οφείλεται στη λειτουργία single conversion;" style="rhombus;whiteSpace=wrap;html=1;shadow=0;fontFamily=Helvetica;fontSize=12;align=center;strokeWidth=1;spacing=6;spacingTop=-4;" vertex="1" parent="WIyWlLk6GJQsqaUBKTNV-1">
          <mxGeometry x="304" y="468" width="110" height="120" as="geometry" />
        </mxCell>
        <mxCell id="13l5qrkYSoA4fVbRsCHJ-79" value="" style="rounded=0;orthogonalLoop=1;jettySize=auto;html=1;" edge="1" parent="WIyWlLk6GJQsqaUBKTNV-1" source="13l5qrkYSoA4fVbRsCHJ-47">
          <mxGeometry relative="1" as="geometry">
            <mxPoint x="420" y="770" as="targetPoint" />
          </mxGeometry>
        </mxCell>
        <mxCell id="13l5qrkYSoA4fVbRsCHJ-47" value="Στίρίβει δεξιά " style="rounded=1;whiteSpace=wrap;html=1;fontSize=12;glass=0;strokeWidth=1;shadow=0;" vertex="1" parent="WIyWlLk6GJQsqaUBKTNV-1">
          <mxGeometry x="299" y="635" width="120" height="40" as="geometry" />
        </mxCell>
        <mxCell id="13l5qrkYSoA4fVbRsCHJ-58" value="ναι" style="text;html=1;align=center;verticalAlign=middle;resizable=0;points=[];autosize=1;strokeColor=none;fillColor=none;" vertex="1" parent="WIyWlLk6GJQsqaUBKTNV-1">
          <mxGeometry x="264" y="340" width="40" height="30" as="geometry" />
        </mxCell>
        <mxCell id="13l5qrkYSoA4fVbRsCHJ-59" value="ναι" style="text;html=1;align=center;verticalAlign=middle;resizable=0;points=[];autosize=1;strokeColor=none;fillColor=none;" vertex="1" parent="WIyWlLk6GJQsqaUBKTNV-1">
          <mxGeometry x="845" y="425" width="40" height="30" as="geometry" />
        </mxCell>
        <mxCell id="13l5qrkYSoA4fVbRsCHJ-60" value="ISR&amp;nbsp; TCA_CMP interrupt" style="text;html=1;align=center;verticalAlign=middle;resizable=0;points=[];autosize=1;strokeColor=none;fillColor=none;" vertex="1" parent="WIyWlLk6GJQsqaUBKTNV-1">
          <mxGeometry x="1030" y="65" width="150" height="30" as="geometry" />
        </mxCell>
        <mxCell id="13l5qrkYSoA4fVbRsCHJ-66" value="" style="edgeStyle=orthogonalEdgeStyle;rounded=0;orthogonalLoop=1;jettySize=auto;html=1;" edge="1" parent="WIyWlLk6GJQsqaUBKTNV-1" source="13l5qrkYSoA4fVbRsCHJ-64" target="13l5qrkYSoA4fVbRsCHJ-65">
          <mxGeometry relative="1" as="geometry" />
        </mxCell>
        <mxCell id="13l5qrkYSoA4fVbRsCHJ-64" value="Single Conversion λειτουργία" style="rounded=1;whiteSpace=wrap;html=1;fontSize=12;glass=0;strokeWidth=1;shadow=0;" vertex="1" parent="WIyWlLk6GJQsqaUBKTNV-1">
          <mxGeometry x="1180" y="80" width="120" height="40" as="geometry" />
        </mxCell>
        <mxCell id="13l5qrkYSoA4fVbRsCHJ-67" style="edgeStyle=orthogonalEdgeStyle;rounded=0;orthogonalLoop=1;jettySize=auto;html=1;entryX=1;entryY=0.5;entryDx=0;entryDy=0;strokeColor=#FF0000;" edge="1" parent="WIyWlLk6GJQsqaUBKTNV-1" source="13l5qrkYSoA4fVbRsCHJ-65" target="C6LJLUUqIyaHrq4dWDmy-35">
          <mxGeometry relative="1" as="geometry" />
        </mxCell>
        <mxCell id="13l5qrkYSoA4fVbRsCHJ-84" style="edgeStyle=orthogonalEdgeStyle;rounded=0;orthogonalLoop=1;jettySize=auto;html=1;entryX=0.5;entryY=0;entryDx=0;entryDy=0;" edge="1" parent="WIyWlLk6GJQsqaUBKTNV-1" source="13l5qrkYSoA4fVbRsCHJ-65" target="13l5qrkYSoA4fVbRsCHJ-85">
          <mxGeometry relative="1" as="geometry">
            <mxPoint x="1241" y="400" as="targetPoint" />
          </mxGeometry>
        </mxCell>
        <mxCell id="13l5qrkYSoA4fVbRsCHJ-65" value="RES &amp;lt; 10;" style="rhombus;whiteSpace=wrap;html=1;shadow=0;fontFamily=Helvetica;fontSize=12;align=center;strokeWidth=1;spacing=6;spacingTop=-4;" vertex="1" parent="WIyWlLk6GJQsqaUBKTNV-1">
          <mxGeometry x="1196" y="212.5" width="90" height="95" as="geometry" />
        </mxCell>
        <mxCell id="13l5qrkYSoA4fVbRsCHJ-68" value="ISR&amp;nbsp; ADC_WCOMP interrupt" style="text;html=1;align=center;verticalAlign=middle;resizable=0;points=[];autosize=1;strokeColor=none;fillColor=none;" vertex="1" parent="WIyWlLk6GJQsqaUBKTNV-1">
          <mxGeometry x="960" y="230" width="180" height="30" as="geometry" />
        </mxCell>
        <mxCell id="13l5qrkYSoA4fVbRsCHJ-69" value="ναι" style="text;html=1;align=center;verticalAlign=middle;resizable=0;points=[];autosize=1;strokeColor=none;fillColor=none;" vertex="1" parent="WIyWlLk6GJQsqaUBKTNV-1">
          <mxGeometry x="1030" y="260" width="40" height="30" as="geometry" />
        </mxCell>
        <mxCell id="13l5qrkYSoA4fVbRsCHJ-70" value="yes" style="text;html=1;align=center;verticalAlign=middle;resizable=0;points=[];autosize=1;strokeColor=none;fillColor=none;" vertex="1" parent="WIyWlLk6GJQsqaUBKTNV-1">
          <mxGeometry x="840" y="180" width="40" height="30" as="geometry" />
        </mxCell>
        <mxCell id="13l5qrkYSoA4fVbRsCHJ-71" value="ναι" style="text;html=1;align=center;verticalAlign=middle;resizable=0;points=[];autosize=1;strokeColor=none;fillColor=none;" vertex="1" parent="WIyWlLk6GJQsqaUBKTNV-1">
          <mxGeometry x="1310" y="212.5" width="40" height="30" as="geometry" />
        </mxCell>
        <mxCell id="flucwt-dqUH6lkM2mZYo-21" style="edgeStyle=orthogonalEdgeStyle;rounded=0;orthogonalLoop=1;jettySize=auto;html=1;exitX=0.5;exitY=1;exitDx=0;exitDy=0;entryX=0;entryY=0.5;entryDx=0;entryDy=0;" edge="1" parent="WIyWlLk6GJQsqaUBKTNV-1" source="13l5qrkYSoA4fVbRsCHJ-75" target="flucwt-dqUH6lkM2mZYo-19">
          <mxGeometry relative="1" as="geometry" />
        </mxCell>
        <mxCell id="13l5qrkYSoA4fVbRsCHJ-75" value="Στρίβει δεξιά ή αριστερά για 5s;" style="rhombus;whiteSpace=wrap;html=1;shadow=0;fontFamily=Helvetica;fontSize=12;align=center;strokeWidth=1;spacing=6;spacingTop=-4;" vertex="1" parent="WIyWlLk6GJQsqaUBKTNV-1">
          <mxGeometry x="140" y="840" width="100" height="110" as="geometry" />
        </mxCell>
        <mxCell id="13l5qrkYSoA4fVbRsCHJ-86" style="edgeStyle=orthogonalEdgeStyle;rounded=0;orthogonalLoop=1;jettySize=auto;html=1;exitX=1;exitY=0.5;exitDx=0;exitDy=0;entryX=0.5;entryY=0;entryDx=0;entryDy=0;strokeColor=#FF0000;" edge="1" parent="WIyWlLk6GJQsqaUBKTNV-1" source="13l5qrkYSoA4fVbRsCHJ-85">
          <mxGeometry relative="1" as="geometry">
            <Array as="points">
              <mxPoint x="1360" y="421" />
              <mxPoint x="1360" y="30" />
              <mxPoint x="490" y="30" />
            </Array>
            <mxPoint x="490" y="80" as="targetPoint" />
          </mxGeometry>
        </mxCell>
        <mxCell id="13l5qrkYSoA4fVbRsCHJ-85" value="έχει περάσει χρόνος 2s;" style="rhombus;whiteSpace=wrap;html=1;shadow=0;fontFamily=Helvetica;fontSize=12;align=center;strokeWidth=1;spacing=6;spacingTop=-4;" vertex="1" parent="WIyWlLk6GJQsqaUBKTNV-1">
          <mxGeometry x="1196" y="373" width="90" height="95" as="geometry" />
        </mxCell>
        <mxCell id="13l5qrkYSoA4fVbRsCHJ-87" value="ISR&amp;nbsp; TCA_CMP interrupt" style="text;html=1;align=center;verticalAlign=middle;resizable=0;points=[];autosize=1;strokeColor=none;fillColor=none;rotation=90;" vertex="1" parent="WIyWlLk6GJQsqaUBKTNV-1">
          <mxGeometry x="1300" y="210" width="150" height="30" as="geometry" />
        </mxCell>
        <mxCell id="13l5qrkYSoA4fVbRsCHJ-93" style="edgeStyle=orthogonalEdgeStyle;rounded=0;orthogonalLoop=1;jettySize=auto;html=1;entryX=0;entryY=0.5;entryDx=0;entryDy=0;" edge="1" parent="WIyWlLk6GJQsqaUBKTNV-1" source="13l5qrkYSoA4fVbRsCHJ-90" target="13l5qrkYSoA4fVbRsCHJ-94">
          <mxGeometry relative="1" as="geometry">
            <mxPoint x="1200" y="-50" as="targetPoint" />
          </mxGeometry>
        </mxCell>
        <mxCell id="13l5qrkYSoA4fVbRsCHJ-90" value="Παύση Κίνησης" style="rounded=1;whiteSpace=wrap;html=1;fontSize=12;glass=0;strokeWidth=1;shadow=0;" vertex="1" parent="WIyWlLk6GJQsqaUBKTNV-1">
          <mxGeometry x="930" y="-70" width="120" height="40" as="geometry" />
        </mxCell>
        <mxCell id="13l5qrkYSoA4fVbRsCHJ-91" value="ISR&amp;nbsp; PORTF_PORT interrupt" style="text;html=1;align=center;verticalAlign=middle;resizable=0;points=[];autosize=1;strokeColor=none;fillColor=none;" vertex="1" parent="WIyWlLk6GJQsqaUBKTNV-1">
          <mxGeometry x="705" y="-80" width="180" height="30" as="geometry" />
        </mxCell>
        <mxCell id="13l5qrkYSoA4fVbRsCHJ-95" style="edgeStyle=orthogonalEdgeStyle;rounded=0;orthogonalLoop=1;jettySize=auto;html=1;entryX=0;entryY=0.5;entryDx=0;entryDy=0;" edge="1" parent="WIyWlLk6GJQsqaUBKTNV-1" source="13l5qrkYSoA4fVbRsCHJ-94" target="13l5qrkYSoA4fVbRsCHJ-96">
          <mxGeometry relative="1" as="geometry">
            <mxPoint x="1280" y="-50" as="targetPoint" />
          </mxGeometry>
        </mxCell>
        <mxCell id="13l5qrkYSoA4fVbRsCHJ-94" value="Στρίβει 180 μοίρες" style="rounded=1;whiteSpace=wrap;html=1;fontSize=12;glass=0;strokeWidth=1;shadow=0;" vertex="1" parent="WIyWlLk6GJQsqaUBKTNV-1">
          <mxGeometry x="1100" y="-70" width="120" height="40" as="geometry" />
        </mxCell>
        <mxCell id="13l5qrkYSoA4fVbRsCHJ-97" style="edgeStyle=orthogonalEdgeStyle;rounded=0;orthogonalLoop=1;jettySize=auto;html=1;entryX=0.406;entryY=-0.069;entryDx=0;entryDy=0;entryPerimeter=0;fillColor=#FF3333;strokeColor=#FF3333;" edge="1" parent="WIyWlLk6GJQsqaUBKTNV-1" source="13l5qrkYSoA4fVbRsCHJ-96" target="flucwt-dqUH6lkM2mZYo-7">
          <mxGeometry relative="1" as="geometry">
            <Array as="points">
              <mxPoint x="479" />
            </Array>
            <mxPoint x="690" y="50" as="targetPoint" />
          </mxGeometry>
        </mxCell>
        <mxCell id="13l5qrkYSoA4fVbRsCHJ-96" value="Στρίβει για 10s;" style="rhombus;whiteSpace=wrap;html=1;shadow=0;fontFamily=Helvetica;fontSize=12;align=center;strokeWidth=1;spacing=6;spacingTop=-4;" vertex="1" parent="WIyWlLk6GJQsqaUBKTNV-1">
          <mxGeometry x="1270" y="-105" width="100" height="110" as="geometry" />
        </mxCell>
        <mxCell id="13l5qrkYSoA4fVbRsCHJ-99" value="ναι" style="text;html=1;align=center;verticalAlign=middle;resizable=0;points=[];autosize=1;strokeColor=none;fillColor=none;" vertex="1" parent="WIyWlLk6GJQsqaUBKTNV-1">
          <mxGeometry x="1246" y="-25" width="40" height="30" as="geometry" />
        </mxCell>
        <mxCell id="flucwt-dqUH6lkM2mZYo-14" style="edgeStyle=orthogonalEdgeStyle;rounded=0;orthogonalLoop=1;jettySize=auto;html=1;entryX=1;entryY=0.5;entryDx=0;entryDy=0;" edge="1" parent="WIyWlLk6GJQsqaUBKTNV-1" source="flucwt-dqUH6lkM2mZYo-0" target="flucwt-dqUH6lkM2mZYo-13">
          <mxGeometry relative="1" as="geometry" />
        </mxCell>
        <mxCell id="flucwt-dqUH6lkM2mZYo-0" value="Στρίβει δεξιά ή αριστερά για 5s;" style="rhombus;whiteSpace=wrap;html=1;shadow=0;fontFamily=Helvetica;fontSize=12;align=center;strokeWidth=1;spacing=6;spacingTop=-4;" vertex="1" parent="WIyWlLk6GJQsqaUBKTNV-1">
          <mxGeometry x="380" y="760" width="100" height="110" as="geometry" />
        </mxCell>
        <mxCell id="flucwt-dqUH6lkM2mZYo-6" value="FreeRunningMode ADC" style="rounded=1;whiteSpace=wrap;html=1;fontSize=12;glass=0;strokeWidth=1;shadow=0;" vertex="1" parent="WIyWlLk6GJQsqaUBKTNV-1">
          <mxGeometry x="600" y="80" width="120" height="40" as="geometry" />
        </mxCell>
        <mxCell id="flucwt-dqUH6lkM2mZYo-7" value="Κίνηση Ευθεία" style="rounded=1;whiteSpace=wrap;html=1;fontSize=12;glass=0;strokeWidth=1;shadow=0;" vertex="1" parent="WIyWlLk6GJQsqaUBKTNV-1">
          <mxGeometry x="430" y="80" width="120" height="40" as="geometry" />
        </mxCell>
        <mxCell id="flucwt-dqUH6lkM2mZYo-33" style="edgeStyle=orthogonalEdgeStyle;rounded=0;orthogonalLoop=1;jettySize=auto;html=1;entryX=0.5;entryY=1;entryDx=0;entryDy=0;" edge="1" parent="WIyWlLk6GJQsqaUBKTNV-1" source="flucwt-dqUH6lkM2mZYo-13" target="flucwt-dqUH6lkM2mZYo-23">
          <mxGeometry relative="1" as="geometry" />
        </mxCell>
        <mxCell id="flucwt-dqUH6lkM2mZYo-13" value="&lt;div&gt;Κίνηση ευθεία&lt;/div&gt;&lt;div&gt;&lt;br&gt;&lt;/div&gt;" style="rounded=1;whiteSpace=wrap;html=1;fontSize=12;glass=0;strokeWidth=1;shadow=0;" vertex="1" parent="WIyWlLk6GJQsqaUBKTNV-1">
          <mxGeometry x="205" y="740" width="120" height="40" as="geometry" />
        </mxCell>
        <mxCell id="flucwt-dqUH6lkM2mZYo-18" value="ναι" style="text;html=1;align=center;verticalAlign=middle;resizable=0;points=[];autosize=1;strokeColor=none;fillColor=none;" vertex="1" parent="WIyWlLk6GJQsqaUBKTNV-1">
          <mxGeometry x="140" y="950" width="40" height="30" as="geometry" />
        </mxCell>
        <mxCell id="flucwt-dqUH6lkM2mZYo-45" style="edgeStyle=orthogonalEdgeStyle;rounded=0;orthogonalLoop=1;jettySize=auto;html=1;entryX=0.5;entryY=1;entryDx=0;entryDy=0;" edge="1" parent="WIyWlLk6GJQsqaUBKTNV-1" source="flucwt-dqUH6lkM2mZYo-19" target="flucwt-dqUH6lkM2mZYo-41">
          <mxGeometry relative="1" as="geometry" />
        </mxCell>
        <mxCell id="flucwt-dqUH6lkM2mZYo-19" value="Κίνηση Ευθεία" style="rounded=1;whiteSpace=wrap;html=1;fontSize=12;glass=0;strokeWidth=1;shadow=0;" vertex="1" parent="WIyWlLk6GJQsqaUBKTNV-1">
          <mxGeometry x="325" y="958" width="120" height="40" as="geometry" />
        </mxCell>
        <mxCell id="flucwt-dqUH6lkM2mZYo-27" value="" style="edgeStyle=orthogonalEdgeStyle;rounded=0;orthogonalLoop=1;jettySize=auto;html=1;" edge="1" parent="WIyWlLk6GJQsqaUBKTNV-1" source="flucwt-dqUH6lkM2mZYo-23" target="flucwt-dqUH6lkM2mZYo-26">
          <mxGeometry relative="1" as="geometry" />
        </mxCell>
        <mxCell id="flucwt-dqUH6lkM2mZYo-36" style="edgeStyle=orthogonalEdgeStyle;rounded=0;orthogonalLoop=1;jettySize=auto;html=1;entryX=0.5;entryY=1;entryDx=0;entryDy=0;" edge="1" parent="WIyWlLk6GJQsqaUBKTNV-1" source="flucwt-dqUH6lkM2mZYo-23" target="flucwt-dqUH6lkM2mZYo-6">
          <mxGeometry relative="1" as="geometry">
            <Array as="points">
              <mxPoint x="25" y="230" />
              <mxPoint x="660" y="230" />
            </Array>
          </mxGeometry>
        </mxCell>
        <mxCell id="flucwt-dqUH6lkM2mZYo-23" value="Έχει εκτελέσει maxAngle γωνίες ή (πηγάινει ανάποδα και ο counter gwnies=0);" style="rhombus;whiteSpace=wrap;html=1;shadow=0;fontFamily=Helvetica;fontSize=12;align=center;strokeWidth=1;spacing=6;spacingTop=-4;" vertex="1" parent="WIyWlLk6GJQsqaUBKTNV-1">
          <mxGeometry x="-40" y="460.5" width="130" height="135" as="geometry" />
        </mxCell>
        <mxCell id="flucwt-dqUH6lkM2mZYo-26" value="Stop programm" style="ellipse;whiteSpace=wrap;html=1;" vertex="1" parent="WIyWlLk6GJQsqaUBKTNV-1">
          <mxGeometry x="-180" y="493" width="70" height="70" as="geometry" />
        </mxCell>
        <mxCell id="flucwt-dqUH6lkM2mZYo-28" value="ναι" style="text;html=1;align=center;verticalAlign=middle;resizable=0;points=[];autosize=1;strokeColor=none;fillColor=none;" vertex="1" parent="WIyWlLk6GJQsqaUBKTNV-1">
          <mxGeometry x="-90" y="480" width="40" height="30" as="geometry" />
        </mxCell>
        <mxCell id="flucwt-dqUH6lkM2mZYo-37" value="όχι" style="text;html=1;align=center;verticalAlign=middle;resizable=0;points=[];autosize=1;strokeColor=none;fillColor=none;" vertex="1" parent="WIyWlLk6GJQsqaUBKTNV-1">
          <mxGeometry x="-20" y="380" width="40" height="30" as="geometry" />
        </mxCell>
        <mxCell id="flucwt-dqUH6lkM2mZYo-40" value="" style="edgeStyle=orthogonalEdgeStyle;rounded=0;orthogonalLoop=1;jettySize=auto;html=1;" edge="1" parent="WIyWlLk6GJQsqaUBKTNV-1" source="flucwt-dqUH6lkM2mZYo-41" target="flucwt-dqUH6lkM2mZYo-42">
          <mxGeometry relative="1" as="geometry" />
        </mxCell>
        <mxCell id="flucwt-dqUH6lkM2mZYo-46" style="edgeStyle=orthogonalEdgeStyle;rounded=0;orthogonalLoop=1;jettySize=auto;html=1;exitX=0.5;exitY=0;exitDx=0;exitDy=0;entryX=1;entryY=0.5;entryDx=0;entryDy=0;" edge="1" parent="WIyWlLk6GJQsqaUBKTNV-1" source="flucwt-dqUH6lkM2mZYo-41" target="13l5qrkYSoA4fVbRsCHJ-64">
          <mxGeometry relative="1" as="geometry" />
        </mxCell>
        <mxCell id="flucwt-dqUH6lkM2mZYo-41" value="Έχει εκτελέσει maxAngle γωνίες ή (πηγάινει ανάποδα και ο counter gwnies=0);" style="rhombus;whiteSpace=wrap;html=1;shadow=0;fontFamily=Helvetica;fontSize=12;align=center;strokeWidth=1;spacing=6;spacingTop=-4;" vertex="1" parent="WIyWlLk6GJQsqaUBKTNV-1">
          <mxGeometry x="1360" y="655.75" width="130" height="135" as="geometry" />
        </mxCell>
        <mxCell id="flucwt-dqUH6lkM2mZYo-42" value="Stop programm" style="ellipse;whiteSpace=wrap;html=1;" vertex="1" parent="WIyWlLk6GJQsqaUBKTNV-1">
          <mxGeometry x="1220" y="688.25" width="70" height="70" as="geometry" />
        </mxCell>
        <mxCell id="flucwt-dqUH6lkM2mZYo-43" value="ναι" style="text;html=1;align=center;verticalAlign=middle;resizable=0;points=[];autosize=1;strokeColor=none;fillColor=none;" vertex="1" parent="WIyWlLk6GJQsqaUBKTNV-1">
          <mxGeometry x="1310" y="688.25" width="40" height="30" as="geometry" />
        </mxCell>
        <mxCell id="flucwt-dqUH6lkM2mZYo-44" value="όχι" style="text;html=1;align=center;verticalAlign=middle;resizable=0;points=[];autosize=1;strokeColor=none;fillColor=none;" vertex="1" parent="WIyWlLk6GJQsqaUBKTNV-1">
          <mxGeometry x="1380" y="575.25" width="40" height="30" as="geometry" />
        </mxCell>
        <mxCell id="flucwt-dqUH6lkM2mZYo-47" value="To&amp;nbsp; flag anapoda γίνεται 1 αν ήταν 0 &lt;br&gt;και 0 αν ήταν 1" style="text;html=1;align=center;verticalAlign=middle;resizable=0;points=[];autosize=1;strokeColor=none;fillColor=none;" vertex="1" parent="WIyWlLk6GJQsqaUBKTNV-1">
          <mxGeometry x="880" y="-120" width="210" height="40" as="geometry" />
        </mxCell>
        <mxCell id="flucwt-dqUH6lkM2mZYo-48" value="To flag conv γίνεται 1 αν ήταν&amp;nbsp; 0 &lt;br&gt;&lt;div&gt;και 0 αν ήταν 1&lt;/div&gt;&lt;div&gt;και το flag turned γινεται 1&lt;br&gt;&lt;/div&gt;" style="text;html=1;align=center;verticalAlign=middle;resizable=0;points=[];autosize=1;strokeColor=none;fillColor=none;" vertex="1" parent="WIyWlLk6GJQsqaUBKTNV-1">
          <mxGeometry x="1195" y="480" width="190" height="60" as="geometry" />
        </mxCell>
        <mxCell id="flucwt-dqUH6lkM2mZYo-49" value="ISR&amp;nbsp; TCA_CMP interrupt" style="text;html=1;align=center;verticalAlign=middle;resizable=0;points=[];autosize=1;strokeColor=none;fillColor=none;" vertex="1" parent="WIyWlLk6GJQsqaUBKTNV-1">
          <mxGeometry x="705" y="-30" width="150" height="30" as="geometry" />
        </mxCell>
        <mxCell id="flucwt-dqUH6lkM2mZYo-50" value="Στα ISR&amp;nbsp; TCA_CMP interrupts:" style="text;html=1;align=center;verticalAlign=middle;resizable=0;points=[];autosize=1;strokeColor=none;fillColor=none;" vertex="1" parent="WIyWlLk6GJQsqaUBKTNV-1">
          <mxGeometry x="1030" y="495" width="180" height="30" as="geometry" />
        </mxCell>
        <mxCell id="flucwt-dqUH6lkM2mZYo-51" value="&lt;div&gt;To flag turning &lt;br&gt;&lt;/div&gt;&lt;div&gt;γίνεται 1&lt;br&gt;&lt;/div&gt;" style="text;html=1;align=center;verticalAlign=middle;resizable=0;points=[];autosize=1;strokeColor=none;fillColor=none;" vertex="1" parent="WIyWlLk6GJQsqaUBKTNV-1">
          <mxGeometry x="675" y="250" width="100" height="40" as="geometry" />
        </mxCell>
        <mxCell id="flucwt-dqUH6lkM2mZYo-53" value="το flag turning180 γίνεται&amp;nbsp; 1" style="text;html=1;align=center;verticalAlign=middle;resizable=0;points=[];autosize=1;strokeColor=none;fillColor=none;" vertex="1" parent="WIyWlLk6GJQsqaUBKTNV-1">
          <mxGeometry x="895" y="-150" width="170" height="30" as="geometry" />
        </mxCell>
        <mxCell id="flucwt-dqUH6lkM2mZYo-54" value="flag turned γίνεται 0" style="text;html=1;align=center;verticalAlign=middle;resizable=0;points=[];autosize=1;strokeColor=none;fillColor=none;" vertex="1" parent="WIyWlLk6GJQsqaUBKTNV-1">
          <mxGeometry x="1050" y="-25" width="130" height="30" as="geometry" />
        </mxCell>
        <mxCell id="flucwt-dqUH6lkM2mZYo-56" value="flag turned γίνεται 0" style="text;html=1;align=center;verticalAlign=middle;resizable=0;points=[];autosize=1;strokeColor=none;fillColor=none;" vertex="1" parent="WIyWlLk6GJQsqaUBKTNV-1">
          <mxGeometry x="195" y="940" width="130" height="30" as="geometry" />
        </mxCell>
        <mxCell id="flucwt-dqUH6lkM2mZYo-57" value="flag turned γίνεται 0" style="text;html=1;align=center;verticalAlign=middle;resizable=0;points=[];autosize=1;strokeColor=none;fillColor=none;" vertex="1" parent="WIyWlLk6GJQsqaUBKTNV-1">
          <mxGeometry x="260" y="820" width="130" height="30" as="geometry" />
        </mxCell>
      </root>
    </mxGraphModel>
  </diagram>
</mxfile>
